<?xml version="1.0" encoding="us-ascii" standalone="no"?><svg xmlns="http://www.w3.org/2000/svg" xmlns:xlink="http://www.w3.org/1999/xlink" contentStyleType="text/css" height="402px" preserveAspectRatio="none" style="width:543px;height:402px;background:#FFFFFF;" version="1.1" viewBox="0 0 543 402" width="543px" zoomAndPan="magnify"><defs/><g><!--cluster AccuEnergyTest--><g id="cluster_AccuEnergyTest"><path d="M8.5,80 L122.5,80 A3.75,3.75 0 0 1 125,82.5 L132,102.4883 L533.5,102.4883 A2.5,2.5 0 0 1 536,104.9883 L536,392.5 A2.5,2.5 0 0 1 533.5,395 L8.5,395 A2.5,2.5 0 0 1 6,392.5 L6,82.5 A2.5,2.5 0 0 1 8.5,80 " fill="none" style="stroke:#000000;stroke-width:1.5;"/><line style="stroke:#000000;stroke-width:1.5;" x1="6" x2="132" y1="102.4883" y2="102.4883"/><text fill="#000000" font-family="sans-serif" font-size="14" font-weight="bold" lengthAdjust="spacing" textLength="113" x="10" y="95.5352">AccuEnergyTest</text></g><!--class IServer--><g id="elem_IServer"><rect codeLine="23" fill="#F1F1F1" height="48" id="IServer" rx="2.5" ry="2.5" style="stroke:#181818;stroke-width:0.5;" width="79" x="197.5" y="223"/><ellipse cx="212.5" cy="239" fill="#B4A7E5" rx="11" ry="11" style="stroke:#181818;stroke-width:1.0;"/><path d="M208.9277,235.2651 L208.9277,233.1069 L216.3071,233.1069 L216.3071,235.2651 L213.8418,235.2651 L213.8418,243.3418 L216.3071,243.3418 L216.3071,245.5 L208.9277,245.5 L208.9277,243.3418 L211.3931,243.3418 L211.3931,235.2651 Z " fill="#000000"/><text fill="#000000" font-family="sans-serif" font-size="14" font-style="italic" lengthAdjust="spacing" textLength="47" x="226.5" y="244.291">IServer</text><line style="stroke:#181818;stroke-width:0.5;" x1="198.5" x2="275.5" y1="255" y2="255"/><line style="stroke:#181818;stroke-width:0.5;" x1="198.5" x2="275.5" y1="263" y2="263"/></g><!--class IClient--><g id="elem_IClient"><rect codeLine="24" fill="#F1F1F1" height="48" id="IClient" rx="2.5" ry="2.5" style="stroke:#181818;stroke-width:0.5;" width="76" x="444" y="223"/><ellipse cx="459" cy="239" fill="#B4A7E5" rx="11" ry="11" style="stroke:#181818;stroke-width:1.0;"/><path d="M455.4277,235.2651 L455.4277,233.1069 L462.8071,233.1069 L462.8071,235.2651 L460.3418,235.2651 L460.3418,243.3418 L462.8071,243.3418 L462.8071,245.5 L455.4277,245.5 L455.4277,243.3418 L457.8931,243.3418 L457.8931,235.2651 Z " fill="#000000"/><text fill="#000000" font-family="sans-serif" font-size="14" font-style="italic" lengthAdjust="spacing" textLength="44" x="473" y="244.291">IClient</text><line style="stroke:#181818;stroke-width:0.5;" x1="445" x2="519" y1="255" y2="255"/><line style="stroke:#181818;stroke-width:0.5;" x1="445" x2="519" y1="263" y2="263"/></g><!--class TCPServer--><g id="elem_TCPServer"><rect fill="#F1F1F1" height="48" id="TCPServer" rx="2.5" ry="2.5" style="stroke:#181818;stroke-width:0.5;" width="102" x="140" y="115"/><ellipse cx="155" cy="131" fill="#ADD1B2" rx="11" ry="11" style="stroke:#181818;stroke-width:1.0;"/><path d="M157.4731,137.1431 Q156.8921,137.4419 156.2529,137.5913 Q155.6138,137.7407 154.9082,137.7407 Q152.4014,137.7407 151.0815,136.0889 Q149.7617,134.437 149.7617,131.3159 Q149.7617,128.1865 151.0815,126.5347 Q152.4014,124.8828 154.9082,124.8828 Q155.6138,124.8828 156.2612,125.0322 Q156.9087,125.1816 157.4731,125.4805 L157.4731,128.2031 Q156.8423,127.6221 156.2488,127.3523 Q155.6553,127.0825 155.0244,127.0825 Q153.6797,127.0825 152.9949,128.1492 Q152.3101,129.2158 152.3101,131.3159 Q152.3101,133.4077 152.9949,134.4744 Q153.6797,135.541 155.0244,135.541 Q155.6553,135.541 156.2488,135.2712 Q156.8423,135.0015 157.4731,134.4204 Z " fill="#000000"/><text fill="#000000" font-family="sans-serif" font-size="14" lengthAdjust="spacing" textLength="70" x="169" y="136.291">TCPServer</text><line style="stroke:#181818;stroke-width:0.5;" x1="141" x2="241" y1="147" y2="147"/><line style="stroke:#181818;stroke-width:0.5;" x1="141" x2="241" y1="155" y2="155"/></g><!--class TCPClient--><g id="elem_TCPClient"><rect fill="#F1F1F1" height="48" id="TCPClient" rx="2.5" ry="2.5" style="stroke:#181818;stroke-width:0.5;" width="99" x="420.5" y="115"/><ellipse cx="435.5" cy="131" fill="#ADD1B2" rx="11" ry="11" style="stroke:#181818;stroke-width:1.0;"/><path d="M437.9731,137.1431 Q437.3921,137.4419 436.7529,137.5913 Q436.1138,137.7407 435.4082,137.7407 Q432.9014,137.7407 431.5815,136.0889 Q430.2617,134.437 430.2617,131.3159 Q430.2617,128.1865 431.5815,126.5347 Q432.9014,124.8828 435.4082,124.8828 Q436.1138,124.8828 436.7612,125.0322 Q437.4087,125.1816 437.9731,125.4805 L437.9731,128.2031 Q437.3423,127.6221 436.7488,127.3523 Q436.1553,127.0825 435.5244,127.0825 Q434.1797,127.0825 433.4949,128.1492 Q432.8101,129.2158 432.8101,131.3159 Q432.8101,133.4077 433.4949,134.4744 Q434.1797,135.541 435.5244,135.541 Q436.1553,135.541 436.7488,135.2712 Q437.3423,135.0015 437.9731,134.4204 Z " fill="#000000"/><text fill="#000000" font-family="sans-serif" font-size="14" lengthAdjust="spacing" textLength="67" x="449.5" y="136.291">TCPClient</text><line style="stroke:#181818;stroke-width:0.5;" x1="421.5" x2="518.5" y1="147" y2="147"/><line style="stroke:#181818;stroke-width:0.5;" x1="421.5" x2="518.5" y1="155" y2="155"/></g><!--class EchoServer--><g id="elem_EchoServer"><rect fill="#F1F1F1" height="48" id="EchoServer" rx="2.5" ry="2.5" style="stroke:#181818;stroke-width:0.5;" width="108" x="277" y="115"/><ellipse cx="292" cy="131" fill="#ADD1B2" rx="11" ry="11" style="stroke:#181818;stroke-width:1.0;"/><path d="M294.4731,137.1431 Q293.8921,137.4419 293.2529,137.5913 Q292.6138,137.7407 291.9082,137.7407 Q289.4014,137.7407 288.0815,136.0889 Q286.7617,134.437 286.7617,131.3159 Q286.7617,128.1865 288.0815,126.5347 Q289.4014,124.8828 291.9082,124.8828 Q292.6138,124.8828 293.2612,125.0322 Q293.9087,125.1816 294.4731,125.4805 L294.4731,128.2031 Q293.8423,127.6221 293.2488,127.3523 Q292.6553,127.0825 292.0244,127.0825 Q290.6797,127.0825 289.9949,128.1492 Q289.3101,129.2158 289.3101,131.3159 Q289.3101,133.4077 289.9949,134.4744 Q290.6797,135.541 292.0244,135.541 Q292.6553,135.541 293.2488,135.2712 Q293.8423,135.0015 294.4731,134.4204 Z " fill="#000000"/><text fill="#000000" font-family="sans-serif" font-size="14" lengthAdjust="spacing" textLength="76" x="306" y="136.291">EchoServer</text><line style="stroke:#181818;stroke-width:0.5;" x1="278" x2="384" y1="147" y2="147"/><line style="stroke:#181818;stroke-width:0.5;" x1="278" x2="384" y1="155" y2="155"/></g><!--class EchoTask--><g id="elem_EchoTask"><rect fill="#F1F1F1" height="48" id="EchoTask" rx="2.5" ry="2.5" style="stroke:#181818;stroke-width:0.5;" width="97" x="311.5" y="223"/><ellipse cx="326.5" cy="239" fill="#ADD1B2" rx="11" ry="11" style="stroke:#181818;stroke-width:1.0;"/><path d="M328.9731,245.1431 Q328.3921,245.4419 327.7529,245.5913 Q327.1138,245.7407 326.4082,245.7407 Q323.9014,245.7407 322.5815,244.0889 Q321.2617,242.437 321.2617,239.3159 Q321.2617,236.1865 322.5815,234.5347 Q323.9014,232.8828 326.4082,232.8828 Q327.1138,232.8828 327.7612,233.0322 Q328.4087,233.1816 328.9731,233.4805 L328.9731,236.2031 Q328.3423,235.6221 327.7488,235.3523 Q327.1553,235.0825 326.5244,235.0825 Q325.1797,235.0825 324.4949,236.1492 Q323.8101,237.2158 323.8101,239.3159 Q323.8101,241.4077 324.4949,242.4744 Q325.1797,243.541 326.5244,243.541 Q327.1553,243.541 327.7488,243.2712 Q328.3423,243.0015 328.9731,242.4204 Z " fill="#000000"/><text fill="#000000" font-family="sans-serif" font-size="14" lengthAdjust="spacing" textLength="65" x="340.5" y="244.291">EchoTask</text><line style="stroke:#181818;stroke-width:0.5;" x1="312.5" x2="407.5" y1="255" y2="255"/><line style="stroke:#181818;stroke-width:0.5;" x1="312.5" x2="407.5" y1="263" y2="263"/></g><!--class SimpleMemPool--><g id="elem_SimpleMemPool"><rect fill="#F1F1F1" height="48" id="SimpleMemPool" rx="2.5" ry="2.5" style="stroke:#181818;stroke-width:0.5;" width="141" x="21.5" y="223"/><ellipse cx="36.5" cy="239" fill="#ADD1B2" rx="11" ry="11" style="stroke:#181818;stroke-width:1.0;"/><path d="M38.9731,245.1431 Q38.3921,245.4419 37.7529,245.5913 Q37.1138,245.7407 36.4082,245.7407 Q33.9014,245.7407 32.5815,244.0889 Q31.2617,242.437 31.2617,239.3159 Q31.2617,236.1865 32.5815,234.5347 Q33.9014,232.8828 36.4082,232.8828 Q37.1138,232.8828 37.7612,233.0322 Q38.4087,233.1816 38.9731,233.4805 L38.9731,236.2031 Q38.3423,235.6221 37.7488,235.3523 Q37.1553,235.0825 36.5244,235.0825 Q35.1797,235.0825 34.4949,236.1492 Q33.8101,237.2158 33.8101,239.3159 Q33.8101,241.4077 34.4949,242.4744 Q35.1797,243.541 36.5244,243.541 Q37.1553,243.541 37.7488,243.2712 Q38.3423,243.0015 38.9731,242.4204 Z " fill="#000000"/><text fill="#000000" font-family="sans-serif" font-size="14" lengthAdjust="spacing" textLength="109" x="50.5" y="244.291">SimpleMemPool</text><line style="stroke:#181818;stroke-width:0.5;" x1="22.5" x2="161.5" y1="255" y2="255"/><line style="stroke:#181818;stroke-width:0.5;" x1="22.5" x2="161.5" y1="263" y2="263"/></g><!--class PoolMemory--><g id="elem_PoolMemory"><rect fill="#F1F1F1" height="48" id="PoolMemory" rx="2.5" ry="2.5" style="stroke:#181818;stroke-width:0.5;" width="117" x="167.5" y="331"/><ellipse cx="182.5" cy="347" fill="#ADD1B2" rx="11" ry="11" style="stroke:#181818;stroke-width:1.0;"/><path d="M184.9731,353.1431 Q184.3921,353.4419 183.7529,353.5913 Q183.1138,353.7407 182.4082,353.7407 Q179.9014,353.7407 178.5815,352.0889 Q177.2617,350.437 177.2617,347.3159 Q177.2617,344.1865 178.5815,342.5347 Q179.9014,340.8828 182.4082,340.8828 Q183.1138,340.8828 183.7612,341.0322 Q184.4087,341.1816 184.9731,341.4805 L184.9731,344.2031 Q184.3423,343.6221 183.7488,343.3523 Q183.1553,343.0825 182.5244,343.0825 Q181.1797,343.0825 180.4949,344.1492 Q179.8101,345.2158 179.8101,347.3159 Q179.8101,349.4077 180.4949,350.4744 Q181.1797,351.541 182.5244,351.541 Q183.1553,351.541 183.7488,351.2712 Q184.3423,351.0015 184.9731,350.4204 Z " fill="#000000"/><text fill="#000000" font-family="sans-serif" font-size="14" lengthAdjust="spacing" textLength="85" x="196.5" y="352.291">PoolMemory</text><line style="stroke:#181818;stroke-width:0.5;" x1="168.5" x2="283.5" y1="363" y2="363"/><line style="stroke:#181818;stroke-width:0.5;" x1="168.5" x2="283.5" y1="371" y2="371"/></g><!--class Server--><g id="elem_Server"><rect fill="#F1F1F1" height="48" id="Server" rx="2.5" ry="2.5" style="stroke:#181818;stroke-width:0.5;" width="75" x="223.5" y="7"/><ellipse cx="238.5" cy="23" fill="#DA70D6" rx="11" ry="11" style="stroke:#181818;stroke-width:1.0;"/><path d="M242.1143,29.5 L234.3945,29.5 L234.3945,17.1069 L242.1143,17.1069 L242.1143,19.2651 L236.8433,19.2651 L236.8433,21.938 L241.6162,21.938 L241.6162,24.0962 L236.8433,24.0962 L236.8433,27.3418 L242.1143,27.3418 Z " fill="#000000"/><text fill="#000000" font-family="sans-serif" font-size="14" lengthAdjust="spacing" textLength="43" x="252.5" y="28.291">Server</text><line style="stroke:#181818;stroke-width:0.5;" x1="224.5" x2="297.5" y1="39" y2="39"/><line style="stroke:#181818;stroke-width:0.5;" x1="224.5" x2="297.5" y1="47" y2="47"/></g><!--class Client--><g id="elem_Client"><rect fill="#F1F1F1" height="48" id="Client" rx="2.5" ry="2.5" style="stroke:#181818;stroke-width:0.5;" width="72" x="434" y="7"/><ellipse cx="449" cy="23" fill="#DA70D6" rx="11" ry="11" style="stroke:#181818;stroke-width:1.0;"/><path d="M452.6143,29.5 L444.8945,29.5 L444.8945,17.1069 L452.6143,17.1069 L452.6143,19.2651 L447.3433,19.2651 L447.3433,21.938 L452.1162,21.938 L452.1162,24.0962 L447.3433,24.0962 L447.3433,27.3418 L452.6143,27.3418 Z " fill="#000000"/><text fill="#000000" font-family="sans-serif" font-size="14" lengthAdjust="spacing" textLength="40" x="463" y="28.291">Client</text><line style="stroke:#181818;stroke-width:0.5;" x1="435" x2="505" y1="39" y2="39"/><line style="stroke:#181818;stroke-width:0.5;" x1="435" x2="505" y1="47" y2="47"/></g><!--link TCPServer to IServer--><g id="link_TCPServer_IServer"><path codeLine="26" d="M201.09,163.26 C206.25,175.14 212.68,189.96 218.67,203.76 " fill="none" id="TCPServer-to-IServer" style="stroke:#181818;stroke-width:1.0;stroke-dasharray:7.0,7.0;"/><polygon fill="none" points="225.39,200.66,226.93,221.79,212.55,206.23,225.39,200.66" style="stroke:#181818;stroke-width:1.0;"/></g><!--link TCPClient to IClient--><g id="link_TCPClient_IClient"><path codeLine="27" d="M472.63,163.26 C473.93,174.72 475.54,188.93 477.05,202.31 " fill="none" id="TCPClient-to-IClient" style="stroke:#181818;stroke-width:1.0;stroke-dasharray:7.0,7.0;"/><polygon fill="none" points="484.08,201.13,479.37,221.79,470.17,202.71,484.08,201.13" style="stroke:#181818;stroke-width:1.0;"/></g><!--link EchoServer to IServer--><g id="link_EchoServer_IServer"><path codeLine="29" d="M310.37,163.26 C297.51,177.76 280.77,196.65 266.52,212.71 " fill="none" id="EchoServer-to-IServer" style="stroke:#181818;stroke-width:1.0;"/><polygon fill="none" points="258.58,221.79,265.5523,219.9496,266.5352,212.8058,259.5629,214.6462,258.58,221.79" style="stroke:#181818;stroke-width:1.0;"/></g><!--link EchoServer to EchoTask--><g id="link_EchoServer_EchoTask"><path codeLine="30" d="M337.36,163.26 C341.07,176.79 345.81,194.15 350,209.47 " fill="none" id="EchoServer-to-EchoTask" style="stroke:#181818;stroke-width:1.0;"/><polygon fill="#181818" points="353.65,221.79,355.9264,214.9476,350.4859,210.2147,348.2095,217.057,353.65,221.79" style="stroke:#181818;stroke-width:1.0;"/></g><!--link SimpleMemPool to PoolMemory--><g id="link_SimpleMemPool_PoolMemory"><path codeLine="32" d="M121.41,271.26 C140.35,286.24 165.21,305.91 185.94,322.31 " fill="none" id="SimpleMemPool-to-PoolMemory" style="stroke:#181818;stroke-width:1.0;"/><polygon fill="#181818" points="195.66,330.79,193.4371,323.9301,186.2498,323.3436,188.4728,330.2035,195.66,330.79" style="stroke:#181818;stroke-width:1.0;"/></g><!--link EchoTask to PoolMemory--><g id="link_EchoTask_PoolMemory"><path codeLine="34" d="M330.59,271.26 C311.65,286.24 286.79,305.91 266.06,322.31 " fill="none" id="EchoTask-to-PoolMemory" style="stroke:#181818;stroke-width:1.0;"/><polygon fill="none" points="256.34,330.79,263.5272,330.2035,265.7502,323.3436,258.5629,323.9301,256.34,330.79" style="stroke:#181818;stroke-width:1.0;"/></g><!--link Server to EchoServer--><g id="link_Server_EchoServer"><path codeLine="37" d="M276.36,55.26 C285.66,69.35 297.7,87.57 308.11,103.33 " fill="none" id="Server-to-EchoServer" style="stroke:#181818;stroke-width:1.0;"/><polygon fill="none" points="315.67,113.79,315.7074,106.579,309.0654,103.7711,309.0281,110.9821,315.67,113.79" style="stroke:#181818;stroke-width:1.0;"/></g><!--link Server to TCPServer--><g id="link_Server_TCPServer"><path codeLine="38" d="M245.64,55.26 C236.34,69.35 224.3,87.57 213.89,103.33 " fill="none" id="Server-to-TCPServer" style="stroke:#181818;stroke-width:1.0;"/><polygon fill="none" points="206.33,113.79,212.9719,110.9821,212.9346,103.7711,206.2926,106.579,206.33,113.79" style="stroke:#181818;stroke-width:1.0;"/></g><!--link Client to TCPClient--><g id="link_Client_TCPClient"><path codeLine="39" d="M470,55.26 C470,68.66 470,85.79 470,101 " fill="none" id="Client-to-TCPClient" style="stroke:#181818;stroke-width:1.0;"/><polygon fill="none" points="470,113.79,474,107.79,470,101.79,466,107.79,470,113.79" style="stroke:#181818;stroke-width:1.0;"/></g><!--SRC=[NKzB2i8m4Dtd5DdvmRPxAGKfNRWG2kq5GZhQO7uagL3KkzjeQgEhOTvltgnwvxJTPvdcHBf1y9GgaL5Eh4qwHYw628Ga4M0reO0Fb0wL17CPMx0Etn6J3ipPKyS6p0rCZ9ISWNG81GhdZtJGAMxBEcY38Y9cIqLx5Ln9ehxXF_0M-xKbzefGmuJcS09HAyKzv-UqAZD-mhpi7HKHpyctt5YoOtGf6xe6C1ITFylnkjefGtlMROfYrlx3Bm00]--></g></svg>