<?xml version="1.0" encoding="us-ascii" standalone="no"?><svg xmlns="http://www.w3.org/2000/svg" xmlns:xlink="http://www.w3.org/1999/xlink" contentStyleType="text/css" height="1079px" preserveAspectRatio="none" style="width:499px;height:1079px;background:#FFFFFF;" version="1.1" viewBox="0 0 499 1079" width="499px" zoomAndPan="magnify"><defs/><g><rect fill="#FFFFFF" height="29.3105" style="stroke:#181818;stroke-width:1.0;" width="10" x="156" y="112.7988"/><rect fill="#FFFFFF" height="29.3105" style="stroke:#181818;stroke-width:1.0;" width="10" x="156" y="171.4199"/><rect fill="#FFFFFF" height="87.9316" style="stroke:#181818;stroke-width:1.0;" width="10" x="156" y="317.9727"/><rect fill="#FFFFFF" height="244.4395" style="stroke:#181818;stroke-width:1.0;" width="10" x="156" y="488.8359"/><rect fill="#FFFFFF" height="155.1973" style="stroke:#181818;stroke-width:1.0;" width="10" x="156" y="834.207"/><rect fill="#FFFFFF" height="29.3105" style="stroke:#181818;stroke-width:1.0;" width="10" x="295" y="230.041"/><rect fill="#FFFFFF" height="29.3105" style="stroke:#181818;stroke-width:1.0;" width="10" x="295" y="288.6621"/><rect fill="#FFFFFF" height="298.0605" style="stroke:#181818;stroke-width:1.0;" width="10" x="295" y="405.9043"/><rect fill="#FFFFFF" height="71.6211" style="stroke:#181818;stroke-width:1.0;" width="10" x="295" y="762.5859"/><rect fill="#FFFFFF" height="110.9316" style="stroke:#181818;stroke-width:1.0;" width="10" x="295" y="878.4727"/><rect fill="#FFFFFF" height="29.3105" style="stroke:#181818;stroke-width:1.0;" width="10" x="439" y="347.2832"/><rect fill="#FFFFFF" height="29.3105" style="stroke:#181818;stroke-width:1.0;" width="10" x="439" y="518.1465"/><rect fill="#FFFFFF" height="29.3105" style="stroke:#181818;stroke-width:1.0;" width="10" x="439" y="601.0781"/><rect fill="#FFFFFF" height="256.1289" style="stroke:#181818;stroke-width:1.0;" width="10" x="439" y="733.2754"/><rect fill="none" height="531.1895" style="stroke:#000000;stroke-width:1.5;" width="394.5" x="99" y="450.2148"/><rect fill="#FFD700" height="411.9473" style="stroke:#000000;stroke-width:1.5;" width="374.5" x="109" y="562.457"/><rect fill="#ADD8E6" height="203.8184" style="stroke:none;stroke-width:1.0;" width="374.5" x="109" y="638.3887"/><rect fill="#FFC0CB" height="132.1973" style="stroke:none;stroke-width:1.0;" width="374.5" x="109" y="842.207"/><line style="stroke:#181818;stroke-width:0.5;stroke-dasharray:5.0,5.0;" x1="52" x2="52" y1="81.4883" y2="998.4043"/><line style="stroke:#181818;stroke-width:0.5;stroke-dasharray:5.0,5.0;" x1="161" x2="161" y1="81.4883" y2="998.4043"/><line style="stroke:#181818;stroke-width:0.5;stroke-dasharray:5.0,5.0;" x1="300" x2="300" y1="81.4883" y2="998.4043"/><line style="stroke:#181818;stroke-width:0.5;stroke-dasharray:5.0,5.0;" x1="443.5" x2="443.5" y1="81.4883" y2="998.4043"/><text fill="#000000" font-family="sans-serif" font-size="14" lengthAdjust="spacing" textLength="88" x="5" y="78.5352">simpleServer</text><ellipse cx="52" cy="13.5" fill="#E2E2F0" rx="8" ry="8" style="stroke:#181818;stroke-width:0.5;"/><path d="M52,21.5 L52,48.5 M39,29.5 L65,29.5 M52,48.5 L39,63.5 M52,48.5 L65,63.5 " fill="none" style="stroke:#181818;stroke-width:0.5;"/><text fill="#000000" font-family="sans-serif" font-size="14" lengthAdjust="spacing" textLength="88" x="5" y="1010.9395">simpleServer</text><ellipse cx="52" cy="1022.3926" fill="#E2E2F0" rx="8" ry="8" style="stroke:#181818;stroke-width:0.5;"/><path d="M52,1030.3926 L52,1057.3926 M39,1038.3926 L65,1038.3926 M52,1057.3926 L39,1072.3926 M52,1057.3926 L65,1072.3926 " fill="none" style="stroke:#181818;stroke-width:0.5;"/><rect fill="#E2E2F0" height="30.4883" rx="2.5" ry="2.5" style="stroke:#181818;stroke-width:0.5;" width="84" x="119" y="50"/><text fill="#000000" font-family="sans-serif" font-size="14" lengthAdjust="spacing" textLength="70" x="126" y="70.5352">TCPServer</text><rect fill="#E2E2F0" height="30.4883" rx="2.5" ry="2.5" style="stroke:#181818;stroke-width:0.5;" width="84" x="119" y="997.4043"/><text fill="#000000" font-family="sans-serif" font-size="14" lengthAdjust="spacing" textLength="70" x="126" y="1017.9395">TCPServer</text><rect fill="#E2E2F0" height="30.4883" rx="2.5" ry="2.5" style="stroke:#181818;stroke-width:0.5;" width="90" x="255" y="50"/><text fill="#000000" font-family="sans-serif" font-size="14" lengthAdjust="spacing" textLength="76" x="262" y="70.5352">EchoServer</text><rect fill="#E2E2F0" height="30.4883" rx="2.5" ry="2.5" style="stroke:#181818;stroke-width:0.5;" width="90" x="255" y="997.4043"/><text fill="#000000" font-family="sans-serif" font-size="14" lengthAdjust="spacing" textLength="76" x="262" y="1017.9395">EchoServer</text><rect fill="#E2E2F0" height="30.4883" rx="2.5" ry="2.5" style="stroke:#181818;stroke-width:0.5;" width="59" x="414.5" y="50"/><text fill="#000000" font-family="sans-serif" font-size="14" lengthAdjust="spacing" textLength="45" x="421.5" y="70.5352">Socket</text><rect fill="#E2E2F0" height="30.4883" rx="2.5" ry="2.5" style="stroke:#181818;stroke-width:0.5;" width="59" x="414.5" y="997.4043"/><text fill="#000000" font-family="sans-serif" font-size="14" lengthAdjust="spacing" textLength="45" x="421.5" y="1017.9395">Socket</text><rect fill="#FFFFFF" height="29.3105" style="stroke:#181818;stroke-width:1.0;" width="10" x="156" y="112.7988"/><rect fill="#FFFFFF" height="29.3105" style="stroke:#181818;stroke-width:1.0;" width="10" x="156" y="171.4199"/><rect fill="#FFFFFF" height="87.9316" style="stroke:#181818;stroke-width:1.0;" width="10" x="156" y="317.9727"/><rect fill="#FFFFFF" height="244.4395" style="stroke:#181818;stroke-width:1.0;" width="10" x="156" y="488.8359"/><rect fill="#FFFFFF" height="155.1973" style="stroke:#181818;stroke-width:1.0;" width="10" x="156" y="834.207"/><rect fill="#FFFFFF" height="29.3105" style="stroke:#181818;stroke-width:1.0;" width="10" x="295" y="230.041"/><rect fill="#FFFFFF" height="29.3105" style="stroke:#181818;stroke-width:1.0;" width="10" x="295" y="288.6621"/><rect fill="#FFFFFF" height="298.0605" style="stroke:#181818;stroke-width:1.0;" width="10" x="295" y="405.9043"/><rect fill="#FFFFFF" height="71.6211" style="stroke:#181818;stroke-width:1.0;" width="10" x="295" y="762.5859"/><rect fill="#FFFFFF" height="110.9316" style="stroke:#181818;stroke-width:1.0;" width="10" x="295" y="878.4727"/><rect fill="#FFFFFF" height="29.3105" style="stroke:#181818;stroke-width:1.0;" width="10" x="439" y="347.2832"/><rect fill="#FFFFFF" height="29.3105" style="stroke:#181818;stroke-width:1.0;" width="10" x="439" y="518.1465"/><rect fill="#FFFFFF" height="29.3105" style="stroke:#181818;stroke-width:1.0;" width="10" x="439" y="601.0781"/><rect fill="#FFFFFF" height="256.1289" style="stroke:#181818;stroke-width:1.0;" width="10" x="439" y="733.2754"/><polygon fill="#181818" points="144,108.7988,154,112.7988,144,116.7988,148,112.7988" style="stroke:#181818;stroke-width:1.0;"/><line style="stroke:#181818;stroke-width:1.0;" x1="52" x2="150" y1="112.7988" y2="112.7988"/><text fill="#000000" font-family="sans-serif" font-size="13" font-weight="bold" lengthAdjust="spacing" textLength="9" x="59" y="108.0566">1</text><text fill="#000000" font-family="sans-serif" font-size="13" lengthAdjust="spacing" textLength="72" x="72" y="108.0566">create(port)</text><polygon fill="#181818" points="63,138.1094,53,142.1094,63,146.1094,59,142.1094" style="stroke:#181818;stroke-width:1.0;"/><line style="stroke:#181818;stroke-width:1.0;stroke-dasharray:2.0,2.0;" x1="57" x2="160" y1="142.1094" y2="142.1094"/><text fill="#000000" font-family="sans-serif" font-size="13" font-weight="bold" lengthAdjust="spacing" textLength="9" x="69" y="137.3672">2</text><text fill="#000000" font-family="sans-serif" font-size="13" lengthAdjust="spacing" textLength="4" x="82" y="137.3672">&#160;</text><polygon fill="#181818" points="144,167.4199,154,171.4199,144,175.4199,148,171.4199" style="stroke:#181818;stroke-width:1.0;"/><line style="stroke:#181818;stroke-width:1.0;" x1="52" x2="150" y1="171.4199" y2="171.4199"/><text fill="#000000" font-family="sans-serif" font-size="13" font-weight="bold" lengthAdjust="spacing" textLength="9" x="59" y="166.6777">3</text><text fill="#000000" font-family="sans-serif" font-size="13" lengthAdjust="spacing" textLength="21" x="72" y="166.6777">init</text><polygon fill="#181818" points="63,196.7305,53,200.7305,63,204.7305,59,200.7305" style="stroke:#181818;stroke-width:1.0;"/><line style="stroke:#181818;stroke-width:1.0;stroke-dasharray:2.0,2.0;" x1="57" x2="160" y1="200.7305" y2="200.7305"/><text fill="#000000" font-family="sans-serif" font-size="13" font-weight="bold" lengthAdjust="spacing" textLength="9" x="69" y="195.9883">4</text><text fill="#000000" font-family="sans-serif" font-size="13" lengthAdjust="spacing" textLength="4" x="82" y="195.9883">&#160;</text><polygon fill="#181818" points="283,226.041,293,230.041,283,234.041,287,230.041" style="stroke:#181818;stroke-width:1.0;"/><line style="stroke:#181818;stroke-width:1.0;" x1="52" x2="289" y1="230.041" y2="230.041"/><text fill="#000000" font-family="sans-serif" font-size="13" font-weight="bold" lengthAdjust="spacing" textLength="9" x="59" y="225.2988">5</text><text fill="#000000" font-family="sans-serif" font-size="13" lengthAdjust="spacing" textLength="108" x="72" y="225.2988">create(TCPServer)</text><polygon fill="#181818" points="63,255.3516,53,259.3516,63,263.3516,59,259.3516" style="stroke:#181818;stroke-width:1.0;"/><line style="stroke:#181818;stroke-width:1.0;stroke-dasharray:2.0,2.0;" x1="57" x2="299" y1="259.3516" y2="259.3516"/><text fill="#000000" font-family="sans-serif" font-size="13" font-weight="bold" lengthAdjust="spacing" textLength="9" x="69" y="254.6094">6</text><text fill="#000000" font-family="sans-serif" font-size="13" lengthAdjust="spacing" textLength="4" x="82" y="254.6094">&#160;</text><polygon fill="#181818" points="283,284.6621,293,288.6621,283,292.6621,287,288.6621" style="stroke:#181818;stroke-width:1.0;"/><line style="stroke:#181818;stroke-width:1.0;" x1="52" x2="289" y1="288.6621" y2="288.6621"/><text fill="#000000" font-family="sans-serif" font-size="13" font-weight="bold" lengthAdjust="spacing" textLength="9" x="59" y="283.9199">7</text><text fill="#000000" font-family="sans-serif" font-size="13" lengthAdjust="spacing" textLength="29" x="72" y="283.9199">start</text><polygon fill="#181818" points="177,313.9727,167,317.9727,177,321.9727,173,317.9727" style="stroke:#181818;stroke-width:1.0;"/><line style="stroke:#181818;stroke-width:1.0;" x1="171" x2="299" y1="317.9727" y2="317.9727"/><text fill="#000000" font-family="sans-serif" font-size="13" font-weight="bold" lengthAdjust="spacing" textLength="9" x="183" y="313.2305">8</text><text fill="#000000" font-family="sans-serif" font-size="13" lengthAdjust="spacing" textLength="29" x="196" y="313.2305">start</text><polygon fill="#181818" points="427,343.2832,437,347.2832,427,351.2832,431,347.2832" style="stroke:#181818;stroke-width:1.0;"/><line style="stroke:#181818;stroke-width:1.0;" x1="166" x2="433" y1="347.2832" y2="347.2832"/><text fill="#000000" font-family="sans-serif" font-size="13" font-weight="bold" lengthAdjust="spacing" textLength="9" x="173" y="342.541">9</text><text fill="#000000" font-family="sans-serif" font-size="13" lengthAdjust="spacing" textLength="35" x="186" y="342.541">listen</text><polygon fill="#181818" points="177,372.5938,167,376.5938,177,380.5938,173,376.5938" style="stroke:#181818;stroke-width:1.0;"/><line style="stroke:#181818;stroke-width:1.0;stroke-dasharray:2.0,2.0;" x1="171" x2="443" y1="376.5938" y2="376.5938"/><text fill="#000000" font-family="sans-serif" font-size="13" font-weight="bold" lengthAdjust="spacing" textLength="18" x="183" y="371.8516">10</text><text fill="#000000" font-family="sans-serif" font-size="13" lengthAdjust="spacing" textLength="4" x="205" y="371.8516">&#160;</text><polygon fill="#181818" points="283,401.9043,293,405.9043,283,409.9043,287,405.9043" style="stroke:#181818;stroke-width:1.0;"/><line style="stroke:#181818;stroke-width:1.0;" x1="161" x2="289" y1="405.9043" y2="405.9043"/><text fill="#000000" font-family="sans-serif" font-size="13" font-weight="bold" lengthAdjust="spacing" textLength="18" x="168" y="401.1621">11</text><text fill="#000000" font-family="sans-serif" font-size="13" lengthAdjust="spacing" textLength="4" x="190" y="401.1621">&#160;</text><polygon fill="#181818" points="63,431.2148,53,435.2148,63,439.2148,59,435.2148" style="stroke:#181818;stroke-width:1.0;"/><line style="stroke:#181818;stroke-width:1.0;stroke-dasharray:2.0,2.0;" x1="57" x2="294" y1="435.2148" y2="435.2148"/><text fill="#000000" font-family="sans-serif" font-size="13" font-weight="bold" lengthAdjust="spacing" textLength="18" x="69" y="430.4727">12</text><text fill="#000000" font-family="sans-serif" font-size="13" lengthAdjust="spacing" textLength="4" x="91" y="430.4727">&#160;</text><path d="M99,450.2148 L173,450.2148 L173,457.5254 L163,467.5254 L99,467.5254 L99,450.2148 " fill="#EEEEEE" style="stroke:#000000;stroke-width:1.5;"/><rect fill="none" height="531.1895" style="stroke:#000000;stroke-width:1.5;" width="394.5" x="99" y="450.2148"/><text fill="#000000" font-family="sans-serif" font-size="13" font-weight="bold" lengthAdjust="spacing" textLength="29" x="114" y="463.7832">loop</text><polygon fill="#181818" points="177,484.8359,167,488.8359,177,492.8359,173,488.8359" style="stroke:#181818;stroke-width:1.0;"/><line style="stroke:#181818;stroke-width:1.0;" x1="171" x2="294" y1="488.8359" y2="488.8359"/><text fill="#000000" font-family="sans-serif" font-size="13" font-weight="bold" lengthAdjust="spacing" textLength="18" x="183" y="484.0938">13</text><text fill="#000000" font-family="sans-serif" font-size="13" lengthAdjust="spacing" textLength="24" x="205" y="484.0938">poll</text><polygon fill="#181818" points="427,514.1465,437,518.1465,427,522.1465,431,518.1465" style="stroke:#181818;stroke-width:1.0;"/><line style="stroke:#181818;stroke-width:1.0;" x1="166" x2="433" y1="518.1465" y2="518.1465"/><text fill="#000000" font-family="sans-serif" font-size="13" font-weight="bold" lengthAdjust="spacing" textLength="18" x="173" y="513.4043">14</text><text fill="#000000" font-family="sans-serif" font-size="13" lengthAdjust="spacing" textLength="24" x="195" y="513.4043">poll</text><polygon fill="#181818" points="177,543.457,167,547.457,177,551.457,173,547.457" style="stroke:#181818;stroke-width:1.0;"/><line style="stroke:#181818;stroke-width:1.0;stroke-dasharray:2.0,2.0;" x1="171" x2="443" y1="547.457" y2="547.457"/><text fill="#000000" font-family="sans-serif" font-size="13" font-weight="bold" lengthAdjust="spacing" textLength="18" x="183" y="542.7148">15</text><text fill="#000000" font-family="sans-serif" font-size="13" lengthAdjust="spacing" textLength="4" x="205" y="542.7148">&#160;</text><path d="M109,562.457 L171,562.457 L171,569.7676 L161,579.7676 L109,579.7676 L109,562.457 " fill="#EEEEEE" style="stroke:#000000;stroke-width:1.5;"/><rect fill="none" height="411.9473" style="stroke:#000000;stroke-width:1.5;" width="374.5" x="109" y="562.457"/><text fill="#000000" font-family="sans-serif" font-size="13" font-weight="bold" lengthAdjust="spacing" textLength="17" x="124" y="576.0254">alt</text><text fill="#000000" font-family="sans-serif" font-size="11" font-weight="bold" lengthAdjust="spacing" textLength="86" x="186" y="575.0918">[client connect]</text><polygon fill="#181818" points="427,597.0781,437,601.0781,427,605.0781,431,601.0781" style="stroke:#181818;stroke-width:1.0;"/><line style="stroke:#181818;stroke-width:1.0;" x1="166" x2="433" y1="601.0781" y2="601.0781"/><text fill="#000000" font-family="sans-serif" font-size="13" font-weight="bold" lengthAdjust="spacing" textLength="18" x="173" y="596.3359">16</text><text fill="#000000" font-family="sans-serif" font-size="13" lengthAdjust="spacing" textLength="41" x="195" y="596.3359">accept</text><polygon fill="#181818" points="177,626.3887,167,630.3887,177,634.3887,173,630.3887" style="stroke:#181818;stroke-width:1.0;"/><line style="stroke:#181818;stroke-width:1.0;stroke-dasharray:2.0,2.0;" x1="171" x2="443" y1="630.3887" y2="630.3887"/><text fill="#000000" font-family="sans-serif" font-size="13" font-weight="bold" lengthAdjust="spacing" textLength="18" x="183" y="625.6465">17</text><text fill="#000000" font-family="sans-serif" font-size="13" lengthAdjust="spacing" textLength="4" x="205" y="625.6465">&#160;</text><line style="stroke:#000000;stroke-width:1.0;stroke-dasharray:2.0,2.0;" x1="109" x2="483.5" y1="639.3887" y2="639.3887"/><text fill="#000000" font-family="sans-serif" font-size="11" font-weight="bold" lengthAdjust="spacing" textLength="117" x="114" y="650.0234">[client data received]</text><polygon fill="#181818" points="283,670.6543,293,674.6543,283,678.6543,287,674.6543" style="stroke:#181818;stroke-width:1.0;"/><line style="stroke:#181818;stroke-width:1.0;" x1="166" x2="289" y1="674.6543" y2="674.6543"/><text fill="#000000" font-family="sans-serif" font-size="13" font-weight="bold" lengthAdjust="spacing" textLength="18" x="173" y="669.9121">18</text><text fill="#000000" font-family="sans-serif" font-size="13" lengthAdjust="spacing" textLength="83" x="195" y="669.9121">onClientRead</text><polygon fill="#181818" points="177,699.9648,167,703.9648,177,707.9648,173,703.9648" style="stroke:#181818;stroke-width:1.0;"/><line style="stroke:#181818;stroke-width:1.0;" x1="171" x2="299" y1="703.9648" y2="703.9648"/><text fill="#000000" font-family="sans-serif" font-size="13" font-weight="bold" lengthAdjust="spacing" textLength="18" x="183" y="699.2227">19</text><text fill="#000000" font-family="sans-serif" font-size="13" lengthAdjust="spacing" textLength="27" x="205" y="699.2227">read</text><polygon fill="#181818" points="427,729.2754,437,733.2754,427,737.2754,431,733.2754" style="stroke:#181818;stroke-width:1.0;"/><line style="stroke:#181818;stroke-width:1.0;" x1="161" x2="433" y1="733.2754" y2="733.2754"/><text fill="#000000" font-family="sans-serif" font-size="13" font-weight="bold" lengthAdjust="spacing" textLength="18" x="168" y="728.5332">20</text><text fill="#000000" font-family="sans-serif" font-size="13" lengthAdjust="spacing" textLength="27" x="190" y="728.5332">read</text><polygon fill="#181818" points="316,758.5859,306,762.5859,316,766.5859,312,762.5859" style="stroke:#181818;stroke-width:1.0;"/><line style="stroke:#181818;stroke-width:1.0;stroke-dasharray:2.0,2.0;" x1="310" x2="438" y1="762.5859" y2="762.5859"/><text fill="#000000" font-family="sans-serif" font-size="13" font-weight="bold" lengthAdjust="spacing" textLength="18" x="322" y="757.8438">21</text><text fill="#000000" font-family="sans-serif" font-size="13" lengthAdjust="spacing" textLength="4" x="344" y="757.8438">&#160;</text><line style="stroke:#181818;stroke-width:1.0;" x1="305" x2="347" y1="791.8965" y2="791.8965"/><line style="stroke:#181818;stroke-width:1.0;" x1="347" x2="347" y1="791.8965" y2="804.8965"/><line style="stroke:#181818;stroke-width:1.0;" x1="306" x2="347" y1="804.8965" y2="804.8965"/><polygon fill="#181818" points="316,800.8965,306,804.8965,316,808.8965,312,804.8965" style="stroke:#181818;stroke-width:1.0;"/><text fill="#000000" font-family="sans-serif" font-size="13" font-weight="bold" lengthAdjust="spacing" textLength="18" x="312" y="787.1543">22</text><text fill="#000000" font-family="sans-serif" font-size="13" lengthAdjust="spacing" textLength="98" x="334" y="787.1543">addToSendBack</text><polygon fill="#181818" points="177,830.207,167,834.207,177,838.207,173,834.207" style="stroke:#181818;stroke-width:1.0;"/><line style="stroke:#181818;stroke-width:1.0;stroke-dasharray:2.0,2.0;" x1="171" x2="299" y1="834.207" y2="834.207"/><text fill="#000000" font-family="sans-serif" font-size="13" font-weight="bold" lengthAdjust="spacing" textLength="18" x="183" y="829.4648">23</text><text fill="#000000" font-family="sans-serif" font-size="13" lengthAdjust="spacing" textLength="4" x="205" y="829.4648">&#160;</text><line style="stroke:#000000;stroke-width:1.0;stroke-dasharray:2.0,2.0;" x1="109" x2="483.5" y1="843.207" y2="843.207"/><text fill="#000000" font-family="sans-serif" font-size="11" font-weight="bold" lengthAdjust="spacing" textLength="134" x="114" y="853.8418">[can send data to client]</text><polygon fill="#181818" points="283,874.4727,293,878.4727,283,882.4727,287,878.4727" style="stroke:#181818;stroke-width:1.0;"/><line style="stroke:#181818;stroke-width:1.0;" x1="166" x2="289" y1="878.4727" y2="878.4727"/><text fill="#000000" font-family="sans-serif" font-size="13" font-weight="bold" lengthAdjust="spacing" textLength="18" x="173" y="873.7305">24</text><text fill="#000000" font-family="sans-serif" font-size="13" lengthAdjust="spacing" textLength="85" x="195" y="873.7305">onClientWrite</text><polygon fill="#181818" points="177,903.7832,167,907.7832,177,911.7832,173,907.7832" style="stroke:#181818;stroke-width:1.0;"/><line style="stroke:#181818;stroke-width:1.0;" x1="171" x2="294" y1="907.7832" y2="907.7832"/><text fill="#000000" font-family="sans-serif" font-size="13" font-weight="bold" lengthAdjust="spacing" textLength="18" x="183" y="903.041">25</text><text fill="#000000" font-family="sans-serif" font-size="13" lengthAdjust="spacing" textLength="83" x="205" y="903.041">sendToClient</text><polygon fill="#181818" points="427,933.0938,437,937.0938,427,941.0938,431,937.0938" style="stroke:#181818;stroke-width:1.0;"/><line style="stroke:#181818;stroke-width:1.0;" x1="166" x2="433" y1="937.0938" y2="937.0938"/><text fill="#000000" font-family="sans-serif" font-size="13" font-weight="bold" lengthAdjust="spacing" textLength="18" x="173" y="932.3516">26</text><text fill="#000000" font-family="sans-serif" font-size="13" lengthAdjust="spacing" textLength="30" x="195" y="932.3516">send</text><polygon fill="#181818" points="177,962.4043,167,966.4043,177,970.4043,173,966.4043" style="stroke:#181818;stroke-width:1.0;"/><line style="stroke:#181818;stroke-width:1.0;stroke-dasharray:2.0,2.0;" x1="171" x2="438" y1="966.4043" y2="966.4043"/><text fill="#000000" font-family="sans-serif" font-size="13" font-weight="bold" lengthAdjust="spacing" textLength="18" x="183" y="961.6621">27</text><text fill="#000000" font-family="sans-serif" font-size="13" lengthAdjust="spacing" textLength="4" x="205" y="961.6621">&#160;</text><!--SRC=[dLAnRiCW4DtvYfCwj97bPlVG8L7LfKFKHEfyXLE2Wi75vtn_CNOISED8BODbuDsxT-_nU61kscgvR0nQxchpB5szREcx8okfL1ht7ciXi6Ddk_gBVFYNx3oqkcuCRScV-hDq1-KBxDQRSLCK5KXFoFJKECyB8QvtPK3cbUKTggA02hJL_5U6Ltbm2SMevaAo45V0lmXRHiyPIMf0MVOM39YhyW3PEdaaZWn6jqnM32THGrgVMPPsZzmJzNaknhacLvOdqpXZSlPHGvGLRs-92fhGC3oyEQD06asMGJfhIV8CMmKe9JKyEoEPbk3XNUyFl38TdLaLCe8dIVf4QjQ72fnTnu8FGdKdYYfmeRgfSSWfNYSQqwWdl5b_L6eNTbQjK1wd3oeF4y8QfjreUmI95jfGE8pARfmymlgLlF_VPnCTCRMp5PzUCrrAvZpfts_eldFhcRQ9HIFsWhcLvJXVG8du4Jy0]--></g></svg>