<?xml version="1.0" encoding="us-ascii" standalone="no"?><svg xmlns="http://www.w3.org/2000/svg" xmlns:xlink="http://www.w3.org/1999/xlink" contentStyleType="text/css" height="1550px" preserveAspectRatio="none" style="width:533px;height:1550px;background:#FFFFFF;" version="1.1" viewBox="0 0 533 1550" width="533px" zoomAndPan="magnify"><defs/><g><rect fill="#FFFFFF" height="402.3477" style="stroke:#181818;stroke-width:1.0;" width="10" x="47" y="91.4883"/><rect fill="#FFFFFF" height="29.3105" style="stroke:#181818;stroke-width:1.0;" width="10" x="197" y="288.6621"/><rect fill="#FFFFFF" height="29.3105" style="stroke:#181818;stroke-width:1.0;" width="10" x="197" y="347.2832"/><rect fill="#FFFFFF" height="356.6816" style="stroke:#181818;stroke-width:1.0;" width="10" x="197" y="464.5254"/><rect fill="#FFFFFF" height="131.6211" style="stroke:#181818;stroke-width:1.0;" width="10" x="197" y="879.8281"/><rect fill="#FFFFFF" height="29.3105" style="stroke:#181818;stroke-width:1.0;" width="10" x="197" y="1055.7148"/><rect fill="#FFFFFF" height="89.3105" style="stroke:#181818;stroke-width:1.0;" width="10" x="197" y="1173.6465"/><rect fill="#FFFFFF" height="71.6211" style="stroke:#181818;stroke-width:1.0;" width="10" x="197" y="1365.8438"/><rect fill="#FFFFFF" height="29.3105" style="stroke:#181818;stroke-width:1.0;" width="10" x="381" y="112.7988"/><rect fill="#FFFFFF" height="87.9316" style="stroke:#181818;stroke-width:1.0;" width="10" x="381" y="171.4199"/><rect fill="#FFFFFF" height="87.9316" style="stroke:#181818;stroke-width:1.0;" width="10" x="381" y="376.5938"/><rect fill="#FFFFFF" height="170.8633" style="stroke:#181818;stroke-width:1.0;" width="10" x="381" y="547.457"/><rect fill="#FFFFFF" height="102.8867" style="stroke:#181818;stroke-width:1.0;" width="10" x="381" y="747.6309"/><rect fill="#FFFFFF" height="162.8867" style="stroke:#181818;stroke-width:1.0;" width="10" x="381" y="981.4492"/><rect fill="#FFFFFF" height="204.5078" style="stroke:#181818;stroke-width:1.0;" width="10" x="381" y="1232.957"/><rect fill="#FFFFFF" height="29.3105" style="stroke:#181818;stroke-width:1.0;" width="10" x="473" y="200.7305"/><rect fill="#FFFFFF" height="29.3105" style="stroke:#181818;stroke-width:1.0;" width="10" x="473" y="405.9043"/><rect fill="#FFFFFF" height="29.3105" style="stroke:#181818;stroke-width:1.0;" width="10" x="473" y="576.7676"/><rect fill="#FFFFFF" height="29.3105" style="stroke:#181818;stroke-width:1.0;" width="10" x="473" y="659.6992"/><rect fill="#FFFFFF" height="59.3105" style="stroke:#181818;stroke-width:1.0;" width="10" x="473" y="850.5176"/><rect fill="#FFFFFF" height="89.3105" style="stroke:#181818;stroke-width:1.0;" width="10" x="473" y="1114.3359"/><rect fill="#FFFFFF" height="29.3105" style="stroke:#181818;stroke-width:1.0;" width="10" x="473" y="1307.2227"/><rect fill="none" height="943.6289" style="stroke:#000000;stroke-width:1.5;" width="390.5" x="137" y="508.8359"/><rect fill="#FFD700" height="824.3867" style="stroke:#000000;stroke-width:1.5;" width="370.5" x="147" y="621.0781"/><rect fill="#ADD8E6" height="263.8184" style="stroke:none;stroke-width:1.0;" width="370.5" x="147" y="755.6309"/><rect fill="#FFC0CB" height="251.5078" style="stroke:none;stroke-width:1.0;" width="370.5" x="147" y="1019.4492"/><rect fill="#FFFFE0" height="174.5078" style="stroke:none;stroke-width:1.0;" width="370.5" x="147" y="1270.957"/><line style="stroke:#181818;stroke-width:0.5;stroke-dasharray:5.0,5.0;" x1="52" x2="52" y1="81.4883" y2="1469.4648"/><line style="stroke:#181818;stroke-width:0.5;stroke-dasharray:5.0,5.0;" x1="202" x2="202" y1="81.4883" y2="1469.4648"/><line style="stroke:#181818;stroke-width:0.5;stroke-dasharray:5.0,5.0;" x1="386" x2="386" y1="81.4883" y2="1469.4648"/><line style="stroke:#181818;stroke-width:0.5;stroke-dasharray:5.0,5.0;" x1="477.5" x2="477.5" y1="81.4883" y2="1469.4648"/><text fill="#000000" font-family="sans-serif" font-size="14" lengthAdjust="spacing" textLength="88" x="5" y="78.5352">simpleServer</text><ellipse cx="52" cy="13.5" fill="#E2E2F0" rx="8" ry="8" style="stroke:#181818;stroke-width:0.5;"/><path d="M52,21.5 L52,48.5 M39,29.5 L65,29.5 M52,48.5 L39,63.5 M52,48.5 L65,63.5 " fill="none" style="stroke:#181818;stroke-width:0.5;"/><text fill="#000000" font-family="sans-serif" font-size="14" lengthAdjust="spacing" textLength="88" x="5" y="1482">simpleServer</text><ellipse cx="52" cy="1493.4531" fill="#E2E2F0" rx="8" ry="8" style="stroke:#181818;stroke-width:0.5;"/><path d="M52,1501.4531 L52,1528.4531 M39,1509.4531 L65,1509.4531 M52,1528.4531 L39,1543.4531 M52,1528.4531 L65,1543.4531 " fill="none" style="stroke:#181818;stroke-width:0.5;"/><rect fill="#E2E2F0" height="30.4883" rx="2.5" ry="2.5" style="stroke:#181818;stroke-width:0.5;" width="90" x="157" y="50"/><text fill="#000000" font-family="sans-serif" font-size="14" lengthAdjust="spacing" textLength="76" x="164" y="70.5352">EchoServer</text><rect fill="#E2E2F0" height="30.4883" rx="2.5" ry="2.5" style="stroke:#181818;stroke-width:0.5;" width="90" x="157" y="1468.4648"/><text fill="#000000" font-family="sans-serif" font-size="14" lengthAdjust="spacing" textLength="76" x="164" y="1489">EchoServer</text><rect fill="#E2E2F0" height="30.4883" rx="2.5" ry="2.5" style="stroke:#181818;stroke-width:0.5;" width="84" x="344" y="50"/><text fill="#000000" font-family="sans-serif" font-size="14" lengthAdjust="spacing" textLength="70" x="351" y="70.5352">TCPServer</text><rect fill="#E2E2F0" height="30.4883" rx="2.5" ry="2.5" style="stroke:#181818;stroke-width:0.5;" width="84" x="344" y="1468.4648"/><text fill="#000000" font-family="sans-serif" font-size="14" lengthAdjust="spacing" textLength="70" x="351" y="1489">TCPServer</text><rect fill="#E2E2F0" height="30.4883" rx="2.5" ry="2.5" style="stroke:#181818;stroke-width:0.5;" width="59" x="448.5" y="50"/><text fill="#000000" font-family="sans-serif" font-size="14" lengthAdjust="spacing" textLength="45" x="455.5" y="70.5352">Socket</text><rect fill="#E2E2F0" height="30.4883" rx="2.5" ry="2.5" style="stroke:#181818;stroke-width:0.5;" width="59" x="448.5" y="1468.4648"/><text fill="#000000" font-family="sans-serif" font-size="14" lengthAdjust="spacing" textLength="45" x="455.5" y="1489">Socket</text><rect fill="#FFFFFF" height="402.3477" style="stroke:#181818;stroke-width:1.0;" width="10" x="47" y="91.4883"/><rect fill="#FFFFFF" height="29.3105" style="stroke:#181818;stroke-width:1.0;" width="10" x="197" y="288.6621"/><rect fill="#FFFFFF" height="29.3105" style="stroke:#181818;stroke-width:1.0;" width="10" x="197" y="347.2832"/><rect fill="#FFFFFF" height="356.6816" style="stroke:#181818;stroke-width:1.0;" width="10" x="197" y="464.5254"/><rect fill="#FFFFFF" height="131.6211" style="stroke:#181818;stroke-width:1.0;" width="10" x="197" y="879.8281"/><rect fill="#FFFFFF" height="29.3105" style="stroke:#181818;stroke-width:1.0;" width="10" x="197" y="1055.7148"/><rect fill="#FFFFFF" height="89.3105" style="stroke:#181818;stroke-width:1.0;" width="10" x="197" y="1173.6465"/><rect fill="#FFFFFF" height="71.6211" style="stroke:#181818;stroke-width:1.0;" width="10" x="197" y="1365.8438"/><rect fill="#FFFFFF" height="29.3105" style="stroke:#181818;stroke-width:1.0;" width="10" x="381" y="112.7988"/><rect fill="#FFFFFF" height="87.9316" style="stroke:#181818;stroke-width:1.0;" width="10" x="381" y="171.4199"/><rect fill="#FFFFFF" height="87.9316" style="stroke:#181818;stroke-width:1.0;" width="10" x="381" y="376.5938"/><rect fill="#FFFFFF" height="170.8633" style="stroke:#181818;stroke-width:1.0;" width="10" x="381" y="547.457"/><rect fill="#FFFFFF" height="102.8867" style="stroke:#181818;stroke-width:1.0;" width="10" x="381" y="747.6309"/><rect fill="#FFFFFF" height="162.8867" style="stroke:#181818;stroke-width:1.0;" width="10" x="381" y="981.4492"/><rect fill="#FFFFFF" height="204.5078" style="stroke:#181818;stroke-width:1.0;" width="10" x="381" y="1232.957"/><rect fill="#FFFFFF" height="29.3105" style="stroke:#181818;stroke-width:1.0;" width="10" x="473" y="200.7305"/><rect fill="#FFFFFF" height="29.3105" style="stroke:#181818;stroke-width:1.0;" width="10" x="473" y="405.9043"/><rect fill="#FFFFFF" height="29.3105" style="stroke:#181818;stroke-width:1.0;" width="10" x="473" y="576.7676"/><rect fill="#FFFFFF" height="29.3105" style="stroke:#181818;stroke-width:1.0;" width="10" x="473" y="659.6992"/><rect fill="#FFFFFF" height="59.3105" style="stroke:#181818;stroke-width:1.0;" width="10" x="473" y="850.5176"/><rect fill="#FFFFFF" height="89.3105" style="stroke:#181818;stroke-width:1.0;" width="10" x="473" y="1114.3359"/><rect fill="#FFFFFF" height="29.3105" style="stroke:#181818;stroke-width:1.0;" width="10" x="473" y="1307.2227"/><polygon fill="#181818" points="369,108.7988,379,112.7988,369,116.7988,373,112.7988" style="stroke:#181818;stroke-width:1.0;"/><line style="stroke:#181818;stroke-width:1.0;" x1="57" x2="375" y1="112.7988" y2="112.7988"/><text fill="#000000" font-family="sans-serif" font-size="13" font-weight="bold" lengthAdjust="spacing" textLength="9" x="64" y="108.0566">1</text><text fill="#000000" font-family="sans-serif" font-size="13" lengthAdjust="spacing" textLength="122" x="77" y="108.0566">create(portNumber)</text><polygon fill="#181818" points="68,138.1094,58,142.1094,68,146.1094,64,142.1094" style="stroke:#181818;stroke-width:1.0;"/><line style="stroke:#181818;stroke-width:1.0;stroke-dasharray:2.0,2.0;" x1="62" x2="385" y1="142.1094" y2="142.1094"/><text fill="#000000" font-family="sans-serif" font-size="13" font-weight="bold" lengthAdjust="spacing" textLength="9" x="74" y="137.3672">2</text><text fill="#000000" font-family="sans-serif" font-size="13" lengthAdjust="spacing" textLength="4" x="87" y="137.3672">&#160;</text><polygon fill="#181818" points="369,167.4199,379,171.4199,369,175.4199,373,171.4199" style="stroke:#181818;stroke-width:1.0;"/><line style="stroke:#181818;stroke-width:1.0;" x1="57" x2="375" y1="171.4199" y2="171.4199"/><text fill="#000000" font-family="sans-serif" font-size="13" font-weight="bold" lengthAdjust="spacing" textLength="9" x="64" y="166.6777">3</text><text fill="#000000" font-family="sans-serif" font-size="13" lengthAdjust="spacing" textLength="21" x="77" y="166.6777">init</text><polygon fill="#181818" points="461,196.7305,471,200.7305,461,204.7305,465,200.7305" style="stroke:#181818;stroke-width:1.0;"/><line style="stroke:#181818;stroke-width:1.0;" x1="391" x2="467" y1="200.7305" y2="200.7305"/><text fill="#000000" font-family="sans-serif" font-size="13" font-weight="bold" lengthAdjust="spacing" textLength="9" x="398" y="195.9883">4</text><text fill="#000000" font-family="sans-serif" font-size="13" lengthAdjust="spacing" textLength="38" x="411" y="195.9883">create</text><polygon fill="#181818" points="402,226.041,392,230.041,402,234.041,398,230.041" style="stroke:#181818;stroke-width:1.0;"/><line style="stroke:#181818;stroke-width:1.0;stroke-dasharray:2.0,2.0;" x1="396" x2="477" y1="230.041" y2="230.041"/><text fill="#000000" font-family="sans-serif" font-size="13" font-weight="bold" lengthAdjust="spacing" textLength="9" x="408" y="225.2988">5</text><text fill="#000000" font-family="sans-serif" font-size="13" lengthAdjust="spacing" textLength="4" x="421" y="225.2988">&#160;</text><polygon fill="#181818" points="68,255.3516,58,259.3516,68,263.3516,64,259.3516" style="stroke:#181818;stroke-width:1.0;"/><line style="stroke:#181818;stroke-width:1.0;stroke-dasharray:2.0,2.0;" x1="62" x2="385" y1="259.3516" y2="259.3516"/><text fill="#000000" font-family="sans-serif" font-size="13" font-weight="bold" lengthAdjust="spacing" textLength="9" x="74" y="254.6094">6</text><text fill="#000000" font-family="sans-serif" font-size="13" lengthAdjust="spacing" textLength="4" x="87" y="254.6094">&#160;</text><polygon fill="#181818" points="185,284.6621,195,288.6621,185,292.6621,189,288.6621" style="stroke:#181818;stroke-width:1.0;"/><line style="stroke:#181818;stroke-width:1.0;" x1="57" x2="191" y1="288.6621" y2="288.6621"/><text fill="#000000" font-family="sans-serif" font-size="13" font-weight="bold" lengthAdjust="spacing" textLength="9" x="64" y="283.9199">7</text><text fill="#000000" font-family="sans-serif" font-size="13" lengthAdjust="spacing" textLength="108" x="77" y="283.9199">create(TCPServer)</text><polygon fill="#181818" points="68,313.9727,58,317.9727,68,321.9727,64,317.9727" style="stroke:#181818;stroke-width:1.0;"/><line style="stroke:#181818;stroke-width:1.0;stroke-dasharray:2.0,2.0;" x1="62" x2="201" y1="317.9727" y2="317.9727"/><text fill="#000000" font-family="sans-serif" font-size="13" font-weight="bold" lengthAdjust="spacing" textLength="9" x="74" y="313.2305">8</text><text fill="#000000" font-family="sans-serif" font-size="13" lengthAdjust="spacing" textLength="4" x="87" y="313.2305">&#160;</text><polygon fill="#181818" points="185,343.2832,195,347.2832,185,351.2832,189,347.2832" style="stroke:#181818;stroke-width:1.0;"/><line style="stroke:#181818;stroke-width:1.0;" x1="57" x2="191" y1="347.2832" y2="347.2832"/><text fill="#000000" font-family="sans-serif" font-size="13" font-weight="bold" lengthAdjust="spacing" textLength="9" x="64" y="342.541">9</text><text fill="#000000" font-family="sans-serif" font-size="13" lengthAdjust="spacing" textLength="29" x="77" y="342.541">start</text><polygon fill="#181818" points="369,372.5938,379,376.5938,369,380.5938,373,376.5938" style="stroke:#181818;stroke-width:1.0;"/><line style="stroke:#181818;stroke-width:1.0;" x1="202" x2="375" y1="376.5938" y2="376.5938"/><text fill="#000000" font-family="sans-serif" font-size="13" font-weight="bold" lengthAdjust="spacing" textLength="18" x="209" y="371.8516">10</text><text fill="#000000" font-family="sans-serif" font-size="13" lengthAdjust="spacing" textLength="29" x="231" y="371.8516">start</text><polygon fill="#181818" points="461,401.9043,471,405.9043,461,409.9043,465,405.9043" style="stroke:#181818;stroke-width:1.0;"/><line style="stroke:#181818;stroke-width:1.0;" x1="391" x2="467" y1="405.9043" y2="405.9043"/><text fill="#000000" font-family="sans-serif" font-size="13" font-weight="bold" lengthAdjust="spacing" textLength="18" x="398" y="401.1621">11</text><text fill="#000000" font-family="sans-serif" font-size="13" lengthAdjust="spacing" textLength="35" x="420" y="401.1621">listen</text><polygon fill="#181818" points="402,431.2148,392,435.2148,402,439.2148,398,435.2148" style="stroke:#181818;stroke-width:1.0;"/><line style="stroke:#181818;stroke-width:1.0;stroke-dasharray:2.0,2.0;" x1="396" x2="477" y1="435.2148" y2="435.2148"/><text fill="#000000" font-family="sans-serif" font-size="13" font-weight="bold" lengthAdjust="spacing" textLength="18" x="408" y="430.4727">12</text><text fill="#000000" font-family="sans-serif" font-size="13" lengthAdjust="spacing" textLength="4" x="430" y="430.4727">&#160;</text><polygon fill="#181818" points="218,460.5254,208,464.5254,218,468.5254,214,464.5254" style="stroke:#181818;stroke-width:1.0;"/><line style="stroke:#181818;stroke-width:1.0;stroke-dasharray:2.0,2.0;" x1="212" x2="385" y1="464.5254" y2="464.5254"/><text fill="#000000" font-family="sans-serif" font-size="13" font-weight="bold" lengthAdjust="spacing" textLength="18" x="224" y="459.7832">13</text><text fill="#000000" font-family="sans-serif" font-size="13" lengthAdjust="spacing" textLength="4" x="246" y="459.7832">&#160;</text><polygon fill="#181818" points="63,489.8359,53,493.8359,63,497.8359,59,493.8359" style="stroke:#181818;stroke-width:1.0;"/><line style="stroke:#181818;stroke-width:1.0;stroke-dasharray:2.0,2.0;" x1="57" x2="196" y1="493.8359" y2="493.8359"/><text fill="#000000" font-family="sans-serif" font-size="13" font-weight="bold" lengthAdjust="spacing" textLength="18" x="69" y="489.0938">14</text><text fill="#000000" font-family="sans-serif" font-size="13" lengthAdjust="spacing" textLength="4" x="91" y="489.0938">&#160;</text><path d="M137,508.8359 L211,508.8359 L211,516.1465 L201,526.1465 L137,526.1465 L137,508.8359 " fill="#EEEEEE" style="stroke:#000000;stroke-width:1.5;"/><rect fill="none" height="943.6289" style="stroke:#000000;stroke-width:1.5;" width="390.5" x="137" y="508.8359"/><text fill="#000000" font-family="sans-serif" font-size="13" font-weight="bold" lengthAdjust="spacing" textLength="29" x="152" y="522.4043">loop</text><polygon fill="#181818" points="369,543.457,379,547.457,369,551.457,373,547.457" style="stroke:#181818;stroke-width:1.0;"/><line style="stroke:#181818;stroke-width:1.0;" x1="207" x2="375" y1="547.457" y2="547.457"/><text fill="#000000" font-family="sans-serif" font-size="13" font-weight="bold" lengthAdjust="spacing" textLength="18" x="214" y="542.7148">15</text><text fill="#000000" font-family="sans-serif" font-size="13" lengthAdjust="spacing" textLength="24" x="236" y="542.7148">poll</text><polygon fill="#181818" points="461,572.7676,471,576.7676,461,580.7676,465,576.7676" style="stroke:#181818;stroke-width:1.0;"/><line style="stroke:#181818;stroke-width:1.0;" x1="391" x2="467" y1="576.7676" y2="576.7676"/><text fill="#000000" font-family="sans-serif" font-size="13" font-weight="bold" lengthAdjust="spacing" textLength="18" x="398" y="572.0254">16</text><text fill="#000000" font-family="sans-serif" font-size="13" lengthAdjust="spacing" textLength="24" x="420" y="572.0254">poll</text><polygon fill="#181818" points="402,602.0781,392,606.0781,402,610.0781,398,606.0781" style="stroke:#181818;stroke-width:1.0;"/><line style="stroke:#181818;stroke-width:1.0;stroke-dasharray:2.0,2.0;" x1="396" x2="477" y1="606.0781" y2="606.0781"/><text fill="#000000" font-family="sans-serif" font-size="13" font-weight="bold" lengthAdjust="spacing" textLength="18" x="408" y="601.3359">17</text><text fill="#000000" font-family="sans-serif" font-size="13" lengthAdjust="spacing" textLength="4" x="430" y="601.3359">&#160;</text><path d="M147,621.0781 L209,621.0781 L209,628.3887 L199,638.3887 L147,638.3887 L147,621.0781 " fill="#EEEEEE" style="stroke:#000000;stroke-width:1.5;"/><rect fill="none" height="824.3867" style="stroke:#000000;stroke-width:1.5;" width="370.5" x="147" y="621.0781"/><text fill="#000000" font-family="sans-serif" font-size="13" font-weight="bold" lengthAdjust="spacing" textLength="17" x="162" y="634.6465">alt</text><text fill="#000000" font-family="sans-serif" font-size="11" font-weight="bold" lengthAdjust="spacing" textLength="86" x="224" y="633.7129">[client connect]</text><polygon fill="#181818" points="461,655.6992,471,659.6992,461,663.6992,465,659.6992" style="stroke:#181818;stroke-width:1.0;"/><line style="stroke:#181818;stroke-width:1.0;" x1="391" x2="467" y1="659.6992" y2="659.6992"/><text fill="#000000" font-family="sans-serif" font-size="13" font-weight="bold" lengthAdjust="spacing" textLength="18" x="398" y="654.957">18</text><text fill="#000000" font-family="sans-serif" font-size="13" lengthAdjust="spacing" textLength="41" x="420" y="654.957">accept</text><polygon fill="#181818" points="402,685.0098,392,689.0098,402,693.0098,398,689.0098" style="stroke:#181818;stroke-width:1.0;"/><line style="stroke:#181818;stroke-width:1.0;stroke-dasharray:2.0,2.0;" x1="396" x2="477" y1="689.0098" y2="689.0098"/><text fill="#000000" font-family="sans-serif" font-size="13" font-weight="bold" lengthAdjust="spacing" textLength="18" x="408" y="684.2676">19</text><text fill="#000000" font-family="sans-serif" font-size="13" lengthAdjust="spacing" textLength="4" x="430" y="684.2676">&#160;</text><polygon fill="#181818" points="218,714.3203,208,718.3203,218,722.3203,214,718.3203" style="stroke:#181818;stroke-width:1.0;"/><line style="stroke:#181818;stroke-width:1.0;" x1="212" x2="385" y1="718.3203" y2="718.3203"/><text fill="#000000" font-family="sans-serif" font-size="13" font-weight="bold" lengthAdjust="spacing" textLength="18" x="224" y="713.5781">20</text><text fill="#000000" font-family="sans-serif" font-size="13" lengthAdjust="spacing" textLength="53" x="246" y="713.5781">onClient</text><polygon fill="#181818" points="369,743.6309,379,747.6309,369,751.6309,373,747.6309" style="stroke:#181818;stroke-width:1.0;"/><line style="stroke:#181818;stroke-width:1.0;stroke-dasharray:2.0,2.0;" x1="207" x2="375" y1="747.6309" y2="747.6309"/><text fill="#000000" font-family="sans-serif" font-size="13" font-weight="bold" lengthAdjust="spacing" textLength="18" x="214" y="742.8887">21</text><text fill="#000000" font-family="sans-serif" font-size="13" lengthAdjust="spacing" textLength="4" x="236" y="742.8887">&#160;</text><line style="stroke:#000000;stroke-width:1.0;stroke-dasharray:2.0,2.0;" x1="147" x2="517.5" y1="756.6309" y2="756.6309"/><text fill="#000000" font-family="sans-serif" font-size="11" font-weight="bold" lengthAdjust="spacing" textLength="117" x="152" y="767.2656">[client data received]</text><polygon fill="#181818" points="218,787.8965,208,791.8965,218,795.8965,214,791.8965" style="stroke:#181818;stroke-width:1.0;"/><line style="stroke:#181818;stroke-width:1.0;" x1="212" x2="380" y1="791.8965" y2="791.8965"/><text fill="#000000" font-family="sans-serif" font-size="13" font-weight="bold" lengthAdjust="spacing" textLength="18" x="224" y="787.1543">22</text><text fill="#000000" font-family="sans-serif" font-size="13" lengthAdjust="spacing" textLength="83" x="246" y="787.1543">onClientRead</text><polygon fill="#181818" points="369,817.207,379,821.207,369,825.207,373,821.207" style="stroke:#181818;stroke-width:1.0;"/><line style="stroke:#181818;stroke-width:1.0;" x1="202" x2="375" y1="821.207" y2="821.207"/><text fill="#000000" font-family="sans-serif" font-size="13" font-weight="bold" lengthAdjust="spacing" textLength="18" x="209" y="816.4648">23</text><text fill="#000000" font-family="sans-serif" font-size="13" lengthAdjust="spacing" textLength="64" x="231" y="816.4648">readClient</text><polygon fill="#181818" points="461,846.5176,471,850.5176,461,854.5176,465,850.5176" style="stroke:#181818;stroke-width:1.0;"/><line style="stroke:#181818;stroke-width:1.0;" x1="386" x2="467" y1="850.5176" y2="850.5176"/><text fill="#000000" font-family="sans-serif" font-size="13" font-weight="bold" lengthAdjust="spacing" textLength="18" x="393" y="845.7754">24</text><text fill="#000000" font-family="sans-serif" font-size="13" lengthAdjust="spacing" textLength="27" x="415" y="845.7754">read</text><polygon fill="#181818" points="218,875.8281,208,879.8281,218,883.8281,214,879.8281" style="stroke:#181818;stroke-width:1.0;"/><line style="stroke:#181818;stroke-width:1.0;stroke-dasharray:2.0,2.0;" x1="212" x2="472" y1="879.8281" y2="879.8281"/><text fill="#000000" font-family="sans-serif" font-size="13" font-weight="bold" lengthAdjust="spacing" textLength="18" x="224" y="875.0859">25</text><text fill="#000000" font-family="sans-serif" font-size="13" lengthAdjust="spacing" textLength="4" x="246" y="875.0859">&#160;</text><line style="stroke:#181818;stroke-width:1.0;" x1="207" x2="249" y1="939.1387" y2="939.1387"/><line style="stroke:#181818;stroke-width:1.0;" x1="249" x2="249" y1="939.1387" y2="952.1387"/><line style="stroke:#181818;stroke-width:1.0;" x1="208" x2="249" y1="952.1387" y2="952.1387"/><polygon fill="#181818" points="218,948.1387,208,952.1387,218,956.1387,214,952.1387" style="stroke:#181818;stroke-width:1.0;"/><text fill="#000000" font-family="sans-serif" font-size="13" font-weight="bold" lengthAdjust="spacing" textLength="18" x="214" y="934.3965">26</text><text fill="#000000" font-family="sans-serif" font-size="13" lengthAdjust="spacing" textLength="138" x="236" y="934.3965">addToSendBackQueue</text><polygon fill="#181818" points="369,977.4492,379,981.4492,369,985.4492,373,981.4492" style="stroke:#181818;stroke-width:1.0;"/><line style="stroke:#181818;stroke-width:1.0;stroke-dasharray:2.0,2.0;" x1="207" x2="375" y1="981.4492" y2="981.4492"/><text fill="#000000" font-family="sans-serif" font-size="13" font-weight="bold" lengthAdjust="spacing" textLength="18" x="214" y="976.707">27</text><text fill="#000000" font-family="sans-serif" font-size="13" lengthAdjust="spacing" textLength="4" x="236" y="976.707">&#160;</text><line style="stroke:#000000;stroke-width:1.0;stroke-dasharray:2.0,2.0;" x1="147" x2="517.5" y1="1020.4492" y2="1020.4492"/><text fill="#000000" font-family="sans-serif" font-size="11" font-weight="bold" lengthAdjust="spacing" textLength="134" x="152" y="1031.084">[can send data to client]</text><polygon fill="#181818" points="218,1051.7148,208,1055.7148,218,1059.7148,214,1055.7148" style="stroke:#181818;stroke-width:1.0;"/><line style="stroke:#181818;stroke-width:1.0;" x1="212" x2="380" y1="1055.7148" y2="1055.7148"/><text fill="#000000" font-family="sans-serif" font-size="13" font-weight="bold" lengthAdjust="spacing" textLength="18" x="224" y="1050.9727">28</text><text fill="#000000" font-family="sans-serif" font-size="13" lengthAdjust="spacing" textLength="85" x="246" y="1050.9727">onClientWrite</text><polygon fill="#181818" points="369,1081.0254,379,1085.0254,369,1089.0254,373,1085.0254" style="stroke:#181818;stroke-width:1.0;"/><line style="stroke:#181818;stroke-width:1.0;" x1="202" x2="375" y1="1085.0254" y2="1085.0254"/><text fill="#000000" font-family="sans-serif" font-size="13" font-weight="bold" lengthAdjust="spacing" textLength="18" x="209" y="1080.2832">29</text><text fill="#000000" font-family="sans-serif" font-size="13" lengthAdjust="spacing" textLength="83" x="231" y="1080.2832">sendToClient</text><polygon fill="#181818" points="461,1110.3359,471,1114.3359,461,1118.3359,465,1114.3359" style="stroke:#181818;stroke-width:1.0;"/><line style="stroke:#181818;stroke-width:1.0;" x1="391" x2="467" y1="1114.3359" y2="1114.3359"/><text fill="#000000" font-family="sans-serif" font-size="13" font-weight="bold" lengthAdjust="spacing" textLength="18" x="398" y="1109.5938">30</text><text fill="#000000" font-family="sans-serif" font-size="13" lengthAdjust="spacing" textLength="30" x="420" y="1109.5938">send</text><polygon fill="#181818" points="218,1169.6465,208,1173.6465,218,1177.6465,214,1173.6465" style="stroke:#181818;stroke-width:1.0;"/><line style="stroke:#181818;stroke-width:1.0;stroke-dasharray:2.0,2.0;" x1="212" x2="472" y1="1173.6465" y2="1173.6465"/><text fill="#000000" font-family="sans-serif" font-size="13" font-weight="bold" lengthAdjust="spacing" textLength="18" x="224" y="1168.9043">31</text><text fill="#000000" font-family="sans-serif" font-size="13" lengthAdjust="spacing" textLength="4" x="246" y="1168.9043">&#160;</text><polygon fill="#181818" points="369,1228.957,379,1232.957,369,1236.957,373,1232.957" style="stroke:#181818;stroke-width:1.0;"/><line style="stroke:#181818;stroke-width:1.0;stroke-dasharray:2.0,2.0;" x1="207" x2="375" y1="1232.957" y2="1232.957"/><text fill="#000000" font-family="sans-serif" font-size="13" font-weight="bold" lengthAdjust="spacing" textLength="18" x="214" y="1228.2148">32</text><text fill="#000000" font-family="sans-serif" font-size="13" lengthAdjust="spacing" textLength="4" x="236" y="1228.2148">&#160;</text><line style="stroke:#000000;stroke-width:1.0;stroke-dasharray:2.0,2.0;" x1="147" x2="517.5" y1="1271.957" y2="1271.957"/><text fill="#000000" font-family="sans-serif" font-size="11" font-weight="bold" lengthAdjust="spacing" textLength="71" x="152" y="1282.5918">[client error]</text><polygon fill="#181818" points="461,1303.2227,471,1307.2227,461,1311.2227,465,1307.2227" style="stroke:#181818;stroke-width:1.0;"/><line style="stroke:#181818;stroke-width:1.0;" x1="391" x2="467" y1="1307.2227" y2="1307.2227"/><text fill="#000000" font-family="sans-serif" font-size="13" font-weight="bold" lengthAdjust="spacing" textLength="18" x="398" y="1302.4805">33</text><text fill="#000000" font-family="sans-serif" font-size="13" lengthAdjust="spacing" textLength="33" x="420" y="1302.4805">close</text><polygon fill="#181818" points="402,1332.5332,392,1336.5332,402,1340.5332,398,1336.5332" style="stroke:#181818;stroke-width:1.0;"/><line style="stroke:#181818;stroke-width:1.0;stroke-dasharray:2.0,2.0;" x1="396" x2="477" y1="1336.5332" y2="1336.5332"/><text fill="#000000" font-family="sans-serif" font-size="13" font-weight="bold" lengthAdjust="spacing" textLength="18" x="408" y="1331.791">34</text><text fill="#000000" font-family="sans-serif" font-size="13" lengthAdjust="spacing" textLength="4" x="430" y="1331.791">&#160;</text><polygon fill="#181818" points="218,1361.8438,208,1365.8438,218,1369.8438,214,1365.8438" style="stroke:#181818;stroke-width:1.0;"/><line style="stroke:#181818;stroke-width:1.0;" x1="212" x2="380" y1="1365.8438" y2="1365.8438"/><text fill="#000000" font-family="sans-serif" font-size="13" font-weight="bold" lengthAdjust="spacing" textLength="18" x="224" y="1361.1016">35</text><text fill="#000000" font-family="sans-serif" font-size="13" lengthAdjust="spacing" textLength="83" x="246" y="1361.1016">onClientError</text><line style="stroke:#181818;stroke-width:1.0;" x1="207" x2="249" y1="1395.1543" y2="1395.1543"/><line style="stroke:#181818;stroke-width:1.0;" x1="249" x2="249" y1="1395.1543" y2="1408.1543"/><line style="stroke:#181818;stroke-width:1.0;" x1="208" x2="249" y1="1408.1543" y2="1408.1543"/><polygon fill="#181818" points="218,1404.1543,208,1408.1543,218,1412.1543,214,1408.1543" style="stroke:#181818;stroke-width:1.0;"/><text fill="#000000" font-family="sans-serif" font-size="13" font-weight="bold" lengthAdjust="spacing" textLength="18" x="214" y="1390.4121">36</text><text fill="#000000" font-family="sans-serif" font-size="13" lengthAdjust="spacing" textLength="62" x="236" y="1390.4121">cleanData</text><polygon fill="#181818" points="374,1433.4648,384,1437.4648,374,1441.4648,378,1437.4648" style="stroke:#181818;stroke-width:1.0;"/><line style="stroke:#181818;stroke-width:1.0;stroke-dasharray:2.0,2.0;" x1="202" x2="380" y1="1437.4648" y2="1437.4648"/><text fill="#000000" font-family="sans-serif" font-size="13" font-weight="bold" lengthAdjust="spacing" textLength="18" x="209" y="1432.7227">37</text><text fill="#000000" font-family="sans-serif" font-size="13" lengthAdjust="spacing" textLength="4" x="231" y="1432.7227">&#160;</text><!--SRC=[dLMnRjim4Dtv5GTaQ093DT9sqf0XQT2b2DB6GD6H9GynOOfagLFo-wKeM-AbaktMWs3gdjzxz-ualziIXRPUhuELZhh6lbU-MRVukqEdiD96FaVP224xygvhVc5CtnNv2ArfWiKdZ2_fNdc0rOgVgnlOt3sEnHfKH4bu6NoaXynv9IP0bU3yvvLOvbkje0RZ39KCD_3arGuf5mSnCTp9x2CoCV-ZxhtQ-a9utyX8SYKcm7yHjYGZCP8okwhgqnimatFUhZKjePjjDnlW3JExQMxSFXkn-AiNwtqGa3xCBnzryDPcpCnu81iU4GiJwalI4bnyyLQ3iWOTWVBEeQ9SN6QlGIg5OO8jfJ9BmxAemRkxh3s2tuowMCaCGTiYN7mrprkwjHqUd6j94Y8gD2-enKdbIVSxIZshpNkf4xdKRwpEnJCiKonPYtZAlIm2uhhCfzHwaqvEtqgr-zPXXmj9bGlIhz4KrgDnEr3IGPjeXgJ8xuCxcLJVpI6h7z4GdX5M_yGbgOq_8w_Ux1v_F31OJApeVSGKQ_8JhVMlXqN167qyvYY_IQrlyUXwdx7TPNBtJFN8k9L5wJwd4Pry7kOSZ7DFOOh-4j8xpIWJqfyGVsdwgDFrcW4AfQ7yWPMdFeVgHrRTXpIKFWdn1m00]--></g></svg>